<svg xmlns="http://www.w3.org/2000/svg" version="1.1" xmlns:xlink="http://www.w3.org/1999/xlink" width="48" height="48"><svg xmlns="http://www.w3.org/2000/svg" version="1.1" xmlns:xlink="http://www.w3.org/1999/xlink" width="48" height="48"><svg width="48" height="48" viewBox="0 0 48 48" fill="none" xmlns="http://www.w3.org/2000/svg">
<path d="M11.999 41C17.8628 41.009 23.6221 39.4484 28.679 36.48C29.344 36.09 29.289 35.132 28.598 34.789L25 33C28.303 33 35 31.663 35 31.663C42.147 24.715 45.78 14.693 44.848 4.821C44.8079 4.39164 44.6191 3.98977 44.3142 3.68484C44.0092 3.37991 43.6074 3.19109 43.178 3.151C38.0242 2.65763 32.8265 3.37644 28 5.25C28 5.25 26.348 9.142 26 11L23.976 8.183C23.8326 7.98053 23.6178 7.83997 23.3749 7.78967C23.1319 7.73938 22.879 7.78309 22.667 7.912C13.264 13.687 7 23.36 7 36.5" stroke="black" stroke-width="2" stroke-linecap="round" stroke-linejoin="round"></path>
<path d="M3 45C8 30.5 24 18 37 11" stroke="black" stroke-width="2" stroke-linecap="round" stroke-linejoin="round"></path>
</svg></svg><style>@media (prefers-color-scheme: light) { :root { filter: none; } }
@media (prefers-color-scheme: dark) { :root { filter: none; } }
</style></svg>